<svg width="16" height="16" viewBox="0 0 16 16" fill="none" xmlns="http://www.w3.org/2000/svg">
<g id="material-symbols:arrow-outward-rounded">
<path id="Vector" d="M10.6666 5.60001L4.74998 11.5333C4.61664 11.6667 4.4582 11.7333 4.27464 11.7333C4.09153 11.7333 3.93331 11.6667 3.79998 11.5333C3.66664 11.4 3.59998 11.2416 3.59998 11.058C3.59998 10.8749 3.66664 10.7167 3.79998 10.5833L9.73331 4.66668H4.66664C4.47775 4.66668 4.31931 4.6029 4.19131 4.47534C4.06375 4.34734 3.99998 4.1889 3.99998 4.00001C3.99998 3.81112 4.06375 3.65268 4.19131 3.52468C4.31931 3.39712 4.47775 3.33334 4.66664 3.33334H11.3333C11.5222 3.33334 11.6804 3.39712 11.808 3.52468C11.936 3.65268 12 3.81112 12 4.00001V10.6667C12 10.8556 11.936 11.0138 11.808 11.1413C11.6804 11.2693 11.5222 11.3333 11.3333 11.3333C11.1444 11.3333 10.9862 11.2693 10.8586 11.1413C10.7306 11.0138 10.6666 10.8556 10.6666 10.6667V5.60001Z" fill="black"/>
</g>
</svg>
